<?xml version="1.0" ?><!DOCTYPE svg  PUBLIC '-//W3C//DTD SVG 1.1//EN'  'http://www.w3.org/Graphics/SVG/1.1/DTD/svg11.dtd'><svg height="512px" id="Layer_1" style="enable-background:new 0 0 512 512;" version="1.1" viewBox="0 0 512 512" width="512px" xml:space="preserve" xmlns="http://www.w3.org/2000/svg" xmlns:xlink="http://www.w3.org/1999/xlink"><style type="text/css">
<![CDATA[
	.st0{fill:#319997;}
	.st1{fill-rule:evenodd;clip-rule:evenodd;fill:#319997;}
]]>
</style><g><path class="st0" d="M95.463,416.534c41.083,41.078,97.845,66.489,160.532,66.489c62.698,0,119.454-25.411,160.531-66.489   c41.084-41.084,66.495-97.839,66.495-160.537c0-62.688-25.411-119.448-66.495-160.532c-41.077-41.078-97.833-66.489-160.531-66.489   c-62.688,0-119.449,25.411-160.532,66.489c-41.083,41.084-66.489,97.845-66.489,160.532   C28.974,318.695,54.379,375.45,95.463,416.534 M255.995,0.003C397.383,0.003,512,114.614,512,255.997   c0,141.388-114.617,256-256.005,256C114.612,511.997,0,397.385,0,255.997C0,114.614,114.612,0.003,255.995,0.003z"/><path class="st1" d="M180.836,159.986c0.744,39.932,14.967,79.098,36.997,100.131c25.462,27.815,66.399,19.133,90.045-12.535   c23.052-30.88,22.007-55.776,22.007-92.566c0-35.884-38.171-62.061-71.863-52.215C216.245,93.771,180.836,115.106,180.836,159.986    M208.641,435.197c0,25.355-36.711,24.914-36.711,1.112c0-16.979,9.125,0.123,0.129-27.938   c-8.225-25.669-10.998-68.754-3.36-95.429c0.95-3.315,2.918-8.622,3.231-12.346c-11.339,0.945-37.706,11.4-46.73,17.791   c-6.788,4.803-11.383,8.789-15.208,17.048c-10.12,21.805-14.436,54.552-17.243,79.539c-2.097,18.674,17.433,20.194,17.433,40.988   c0,4.948,6.899,11.12,12.245,11.12l96.044,28.733l106.315-1.465c3.371,0,41.559-16.444,43.146-19.066   c3.724-6.167,9.113,0.168,8.576-6.245c-0.928-11.048,44.405-25.78,42.862-36.549c-0.755-5.223-1.309-10.243-1.6-15.091   c-0.347-5.77-1.504-10.796-2.029-15.767c-2.085-19.625-5.999-38.696-12.004-56.962c-6.743-20.48-16.192-26.2-34.531-34.447   c-5.613-2.527-20.614-7.979-27.077-8.515c3.053,6.362,0.095,36.331-2.226,41.161c32.78,17.344,23.326,37.069,22.247,60.071   c-0.688,14.688-1.66,57.84-22.247,57.84c-4.651,0-15.571,1.202-15.571-5.558c0-8.834,4.585-5.658,11.987-6.922   c5.211-0.884,5.479-2.79,6.195-3.813c5.513-7.922,6.771-30.817,7.369-41.581c0.677-12.261,4.193-23.94-0.118-34.307   c-6.1-14.677-28.548-23.896-44.633-5.993c-4.82,5.361-6.414,12.232-9.019,19.898c-5.603,16.488-14.057,30.578-14.057,47.133   c0,13.189,12.239,3.215,12.239,16.684c0,9.869-25.585,3.36-25.585-15.576c0-13.419,7.402-31.025,12.065-43.55   c1.885-5.06,3.288-8.521,5.038-13.871c3.114-9.533,6.703-17.405,13.536-23.175c8.353-7.045,13.485-9.506,28.313-9.506   c3.567-15.303,4.686-28.045,1.113-43.381c-8.135-0.682-16.925-6.05-24.473-6.676c-1.432,6.15-4.366,13.743-6.514,19.071   c-7.162,17.785-12.104,28.543-21.766,44.975l-5.088,8.259c0-6.553-2.505-15.605-3.657-23.053   c-3.097-20.111-0.536-8.241,2.539-21.447c-5.161-3.455-9.908-9.181-14.459-12.233c-5.904,3.125-9.661,8.274-15.577,12.233   c6.754,14.072,4.484,10.863,1.75,27.335c-0.944,5.691-2.432,12.082-2.856,17.165c-0.179-0.202-0.42-0.795-0.487-0.627l-4.166-6.955   c-9.08-15.113-26.39-50.023-27.608-64.723c-3.237,0.067-16.707,3.611-18.943,6.637c-7.559,10.182-11.853,49.062-10.148,64.717   c1.705,15.627,1.56,29.354,7.458,44.83c6.687,17.527-1.18,7.413,12.798,12.786C202.446,421.432,208.641,428.605,208.641,435.197z"/></g></svg>