<svg xmlns="http://www.w3.org/2000/svg" viewBox="840 121 239.97 212.864">
  <defs>
    <style>
      .cls-1 {
        fill: #b7f8db;
      }

      .cls-2 {
        fill: #323bea;
      }

      .cls-3 {
        opacity: 0.7;
      }
    </style>
  </defs>
  <g id="Group_1" data-name="Group 1" transform="translate(729 65)">
    <g id="Ativo_1" data-name="Ativo 1" transform="translate(183.532 56)">
      <g id="Camada_1" data-name="Camada 1">
        <circle id="Ellipse_1" data-name="Ellipse 1" class="cls-1" cx="47.115" cy="47.115" r="47.115" transform="translate(2.741 9.078)"/>
        <rect id="Rectangle_1" data-name="Rectangle 1" class="cls-2" width="20.173" height="127.212" rx="10.087"/>
      </g>
    </g>
    <g id="Ativo_2" data-name="Ativo 2" class="cls-3" transform="translate(111 196.333)">
      <g id="Camada_1-2" data-name="Camada 1" transform="translate(0 0)">
        <path id="Path_1" data-name="Path 1" d="M27.084,27.552a17.621,17.621,0,0,1,6.4,7.019A21.675,21.675,0,0,1,35.8,44.68,21.457,21.457,0,0,1,33.451,54.73a18.129,18.129,0,0,1-6.439,7.1A16.678,16.678,0,0,1,17.9,64.411,16.185,16.185,0,0,1,9.427,62.12,18.02,18.02,0,0,1,3.1,55.593V77.856a1.552,1.552,0,0,1-.428,1.08,1.45,1.45,0,0,1-1.117.464,1.45,1.45,0,0,1-1.08-.464A1.45,1.45,0,0,1,0,77.856V26.544a1.545,1.545,0,0,1,.428-1.08A1.45,1.45,0,0,1,1.545,25a1.45,1.45,0,0,1,1.117.464,1.552,1.552,0,0,1,.428,1.08v7.1A15.33,15.33,0,0,1,9.26,27.117,17.636,17.636,0,0,1,17.9,25a17.019,17.019,0,0,1,9.18,2.553Zm-1.7,31.791a15.069,15.069,0,0,0,5.366-6.019,18.745,18.745,0,0,0,1.965-8.644,18.513,18.513,0,0,0-1.965-8.608,15.141,15.141,0,0,0-5.366-6A13.937,13.937,0,0,0,17.744,27.9a14.452,14.452,0,0,0-7.752,2.175A14.227,14.227,0,0,0,4.67,36.014a19.3,19.3,0,0,0-1.893,8.7,19.3,19.3,0,0,0,1.893,8.7A14.5,14.5,0,0,0,9.993,59.4a14.249,14.249,0,0,0,7.752,2.175,13.93,13.93,0,0,0,7.636-2.233Z" transform="translate(0 -6.87)"/>
        <path id="Path_2" data-name="Path 2" d="M84.3,25.717a1.748,1.748,0,0,1-.384,1.16,1.247,1.247,0,0,1-1,.464,4.518,4.518,0,0,1-1.117-.348,5.149,5.149,0,0,0-1.893-.348,10.152,10.152,0,0,0-6.331,2.509,19.536,19.536,0,0,0-5.17,6.331,15.823,15.823,0,0,0-2,7.353V62.126a1.581,1.581,0,0,1-1.545,1.545,1.45,1.45,0,0,1-1.117-.464,1.545,1.545,0,0,1-.428-1.08V26.717a1.581,1.581,0,0,1,1.545-1.545,1.45,1.45,0,0,1,1.117.464,1.552,1.552,0,0,1,.428,1.08V34.9a18.237,18.237,0,0,1,5.511-7.8,13.778,13.778,0,0,1,8.832-3.162Q84.3,23.94,84.3,25.717Z" transform="translate(-17.401 -6.579)"/>
        <path id="Path_3" data-name="Path 3" d="M130.509,54.835a1.4,1.4,0,0,1,.384.964,1.45,1.45,0,0,1-.312.928,20.55,20.55,0,0,1-6.331,5.555,16.077,16.077,0,0,1-8.1,2.175,20.877,20.877,0,0,1-10.261-2.466,17.462,17.462,0,0,1-6.983-7.019A21.551,21.551,0,0,1,96.4,44.378,23.154,23.154,0,0,1,98.827,33.5a17.781,17.781,0,0,1,6.439-7.135A16.069,16.069,0,0,1,113.83,23.9a18.484,18.484,0,0,1,8.448,1.965,15.953,15.953,0,0,1,6.367,5.9,18.948,18.948,0,0,1,2.632,9.753,1.61,1.61,0,0,1-.464,1.117,1.45,1.45,0,0,1-1.08.5H99.407v1a19.768,19.768,0,0,0,1.929,8.76,14.8,14.8,0,0,0,5.707,6.287,17.106,17.106,0,0,0,9.108,2.313,14.213,14.213,0,0,0,6.983-1.813,14.38,14.38,0,0,0,5.134-4.59,1.61,1.61,0,0,1,1.313-.725A1.211,1.211,0,0,1,130.509,54.835Zm-22.48-26.308A15.359,15.359,0,0,0,102.779,33a16.5,16.5,0,0,0-3.046,7.215h28.4v-.725a13.111,13.111,0,0,0-2.509-6.751,13.872,13.872,0,0,0-5.25-4.286A15.228,15.228,0,0,0,113.845,27a12.828,12.828,0,0,0-5.83,1.516Z" transform="translate(-26.493 -6.568)"/>
        <path id="Path_4" data-name="Path 4" d="M185.436,22.334a16.011,16.011,0,0,1,3.546,10.689v22.53a1.581,1.581,0,0,1-1.545,1.545,1.45,1.45,0,0,1-1.117-.464,1.544,1.544,0,0,1-.428-1.08V33.023a13.527,13.527,0,0,0-2.625-8.644q-2.625-3.321-8.02-3.35a14.916,14.916,0,0,0-11.726,6.019,9.957,9.957,0,0,0-2.009,5.939V55.553a1.581,1.581,0,0,1-1.545,1.545,1.45,1.45,0,0,1-1.131-.464,1.545,1.545,0,0,1-.428-1.08V1.544a1.451,1.451,0,0,1,.464-1.08,1.558,1.558,0,0,1,2.219,0,1.552,1.552,0,0,1,.428,1.08v24.38A16.947,16.947,0,0,1,167.5,20.3a15.38,15.38,0,0,1,7.752-2.175Q181.883,18.128,185.436,22.334Z" transform="translate(-43.539 0.001)"/>
        <path id="Path_5" data-name="Path 5" d="M249.892,25.628a1.552,1.552,0,0,1,.428,1.08V62.125a1.581,1.581,0,0,1-1.545,1.545,1.45,1.45,0,0,1-1.117-.464,1.544,1.544,0,0,1-.428-1.08V55.156a16.722,16.722,0,0,1-5.939,6.6,15.707,15.707,0,0,1-8.876,2.661,16.468,16.468,0,0,1-9.18-2.661,18.129,18.129,0,0,1-6.4-7.324,23.205,23.205,0,0,1-2.313-10.457,22.24,22.24,0,0,1,2.357-10.3,17.991,17.991,0,0,1,6.439-7.179,16.679,16.679,0,0,1,9.108-2.582,16.142,16.142,0,0,1,9.028,2.625,14.873,14.873,0,0,1,5.8,7.019V26.709a1.545,1.545,0,0,1,.428-1.08,1.581,1.581,0,0,1,2.241,0Zm-9.645,33.6a15.315,15.315,0,0,0,5.366-6.251,20.4,20.4,0,0,0,1.929-8.948,19.383,19.383,0,0,0-1.929-8.644,15.431,15.431,0,0,0-5.366-6.215,13.6,13.6,0,0,0-7.679-2.3,13.93,13.93,0,0,0-7.679,2.175,14.917,14.917,0,0,0-5.366,6.1,19.653,19.653,0,0,0-1.929,8.832,20.384,20.384,0,0,0,1.936,9,15.4,15.4,0,0,0,5.323,6.287,14.148,14.148,0,0,0,15.395,0Z" transform="translate(-58.96 -6.57)"/>
        <path id="Path_6" data-name="Path 6" d="M308.632,19.976a17.722,17.722,0,0,1,6.4,7.179,22.553,22.553,0,0,1,2.313,10.3,22.725,22.725,0,0,1-2.357,10.377,18.731,18.731,0,0,1-6.439,7.368,16.163,16.163,0,0,1-9.108,2.7,15.474,15.474,0,0,1-8.412-2.429,19.471,19.471,0,0,1-6.4-6.751v6.867a1.551,1.551,0,0,1-.428,1.08,1.45,1.45,0,0,1-1.117.464,1.581,1.581,0,0,1-1.545-1.545V1.644a1.544,1.544,0,0,1,.428-1.08,1.581,1.581,0,0,1,2.241,0,1.552,1.552,0,0,1,.428,1.08V26.8a17.157,17.157,0,0,1,6.215-6.983,15.953,15.953,0,0,1,8.6-2.429,16.83,16.83,0,0,1,9.18,2.589Zm-1.7,32.675a16.055,16.055,0,0,0,5.4-6.287,19.813,19.813,0,0,0,1.965-8.912,19.333,19.333,0,0,0-1.965-8.84,15.308,15.308,0,0,0-5.366-6.1,13.778,13.778,0,0,0-7.687-2.183,14.068,14.068,0,0,0-7.752,2.175,14.656,14.656,0,0,0-5.3,6.106,19.979,19.979,0,0,0-1.893,8.832,20.384,20.384,0,0,0,1.893,8.992,15.4,15.4,0,0,0,5.323,6.287,13.531,13.531,0,0,0,7.73,2.241,13.256,13.256,0,0,0,7.658-2.313Z" transform="translate(-77.381 -0.026)"/>
      </g>
    </g>
  </g>
</svg>
