<?xml version="1.0" encoding="iso-8859-1"?>
<!-- Generator: Adobe Illustrator 19.0.0, SVG Export Plug-In . SVG Version: 6.00 Build 0)  -->
<svg xmlns="http://www.w3.org/2000/svg" xmlns:xlink="http://www.w3.org/1999/xlink" version="1.1" id="Capa_1" x="0px" y="0px" viewBox="0 0 512 512" style="enable-background:new 0 0 512 512;" xml:space="preserve" width="512px" height="512px">
<g>
	<g>
		<path d="M479.057,425.821c-4.199,0-7.604,3.405-7.604,7.604v63.367H40.549v-15.211h357.384c0.254,0,0.508-0.013,0.759-0.039    c0.192-0.019,0.38-0.052,0.569-0.085c0.057-0.01,0.114-0.015,0.17-0.025c0.221-0.045,0.438-0.101,0.652-0.164    c0.022-0.006,0.046-0.01,0.068-0.017c0.219-0.067,0.433-0.146,0.644-0.231c0.018-0.007,0.037-0.012,0.056-0.02    c0.204-0.084,0.401-0.18,0.595-0.282c0.025-0.013,0.053-0.024,0.078-0.037c0.182-0.098,0.359-0.207,0.531-0.318    c0.036-0.023,0.073-0.043,0.109-0.066c0.169-0.114,0.331-0.236,0.489-0.363c0.036-0.028,0.075-0.053,0.109-0.082    c0.192-0.158,0.376-0.324,0.552-0.501l0.001-0.001l80.095-80.254c1.963-1.375,3.249-3.65,3.249-6.228    c0-0.028-0.004-0.057-0.004-0.086c0-0.029,0.004-0.058,0.004-0.087V149.528V78.57c0.001-20.965-17.054-38.02-38.019-38.02h-32.958    V22.812C415.683,10.233,405.451,0,392.872,0S370.06,10.233,370.06,22.812V40.55h-45.626V22.812    C324.434,10.233,314.201,0,301.622,0S278.81,10.233,278.81,22.812V40.55h-45.626V22.812C233.185,10.233,222.952,0,210.373,0    c-12.579,0-22.812,10.233-22.812,22.812V40.55h-45.626V22.812C141.935,10.233,131.702,0,119.123,0    c-12.579,0-22.812,10.233-22.812,22.812V40.55H63.359c-20.965,0-38.02,17.055-38.02,38.02v70.958c0,0.013,0.002,0.026,0.002,0.039    v324.41v30.419c0,4.199,3.405,7.604,7.604,7.604h446.111c4.199,0,7.604-3.405,7.604-7.604v-70.971    C486.661,429.225,483.256,425.821,479.057,425.821z M405.538,455.595v-55.124h55.014L405.538,455.595z M385.268,48.272    c0-0.039,0.006-0.078,0.006-0.118c0-0.039-0.005-0.078-0.006-0.118V22.812c0-4.193,3.411-7.604,7.604-7.604    s7.604,3.411,7.604,7.604v50.69c0,4.193-3.411,7.604-7.604,7.604s-7.604-3.411-7.604-7.604V48.272z M294.018,48.213    c0-0.02,0.003-0.04,0.003-0.059c0-0.019-0.003-0.04-0.003-0.059V22.812c0-4.193,3.411-7.604,7.604-7.604s7.604,3.411,7.604,7.604    v50.69c0,4.193-3.411,7.604-7.604,7.604s-7.604-3.411-7.604-7.604V48.213z M202.769,22.812c0-4.193,3.411-7.604,7.604-7.604    c4.193,0,7.604,3.411,7.604,7.604v50.69c0,4.193-3.411,7.604-7.604,7.604c-4.193,0-7.604-3.411-7.604-7.604V22.812z     M111.519,48.175c0-0.007,0.001-0.013,0.001-0.02c0-0.006-0.001-0.013-0.001-0.02V22.812c0-4.193,3.411-7.604,7.604-7.604    s7.604,3.411,7.604,7.604v50.69c0,4.193-3.411,7.604-7.604,7.604s-7.604-3.411-7.604-7.604V48.175z M40.547,78.57    c0-12.579,10.233-22.812,22.812-22.812h32.952v17.744c0,12.579,10.233,22.812,22.812,22.812c12.579,0,22.812-10.233,22.812-22.812    V55.758h45.626v17.744c0,12.579,10.233,22.812,22.812,22.812c12.579,0,22.812-10.233,22.812-22.812V55.758h45.626v17.744    c0,12.579,10.233,22.812,22.812,22.812s22.812-10.233,22.812-22.812V55.758h45.626v17.744c0,12.579,10.233,22.812,22.812,22.812    s22.812-10.233,22.812-22.812V55.758h32.958c12.579,0,22.812,10.233,22.812,22.812v63.354H63.362    c-4.199,0-7.604,3.405-7.604,7.604c0,4.199,3.405,7.604,7.604,7.604h408.091v228.13h-73.519c-4.199,0-7.604,3.405-7.604,7.604    v73.506H40.549V149.528c0-0.013-0.002-0.026-0.002-0.039V78.57z" fill="#2699fb"/>
	</g>
</g>
<g>
	<g>
		<path d="M357.966,223.861c-14.336-14.337-33.397-22.232-53.671-22.232c-17.834,0-34.729,6.108-48.295,17.337    c-13.566-11.229-30.46-17.337-48.294-17.337c-20.274,0-39.335,7.896-53.672,22.232c-14.336,14.336-22.232,33.397-22.232,53.671    c0,20.274,7.895,39.336,22.232,53.672l96.589,96.589c1.425,1.427,3.36,2.227,5.376,2.227c2.017,0,3.951-0.801,5.377-2.227    l96.589-96.589c14.337-14.336,22.232-33.397,22.232-53.672S372.302,238.196,357.966,223.861z M347.213,320.45l-91.212,91.213    L164.79,320.45c-11.464-11.464-17.777-26.705-17.777-42.918c-0.001-16.212,6.312-31.453,17.776-42.917    c11.464-11.465,26.705-17.778,42.918-17.778c16.213,0,31.454,6.313,42.918,17.778c1.425,1.427,3.36,2.227,5.376,2.227    c2.017,0,3.951-0.801,5.377-2.227c11.465-11.464,26.706-17.778,42.919-17.778c16.212,0,31.453,6.313,42.918,17.778    c11.465,11.463,17.778,26.704,17.778,42.917C364.991,293.744,358.678,308.986,347.213,320.45z" fill="#3289c7"/>
	</g>
</g>
<g>
</g>
<g>
</g>
<g>
</g>
<g>
</g>
<g>
</g>
<g>
</g>
<g>
</g>
<g>
</g>
<g>
</g>
<g>
</g>
<g>
</g>
<g>
</g>
<g>
</g>
<g>
</g>
<g>
</g>
</svg>
