<?xml version="1.0" encoding="iso-8859-1"?>
<!-- Generator: Adobe Illustrator 19.0.0, SVG Export Plug-In . SVG Version: 6.00 Build 0)  -->
<svg xmlns="http://www.w3.org/2000/svg" xmlns:xlink="http://www.w3.org/1999/xlink" version="1.1" id="Capa_1" x="0px" y="0px" viewBox="0 0 211.305 211.305" style="enable-background:new 0 0 211.305 211.305;" xml:space="preserve" width="512px" height="512px">
<g>
	<g>
		<path d="M171.614,78.1c-0.746-0.945-1.461-1.854-2.138-2.727c-6.578-8.477-9.919-17.923-12.868-26.255    c-2.099-5.932-3.912-11.054-6.554-14.725c-7.221-10.028-34.388-14.087-40.311-13.906c-6.405,0.189-9.062,5.675-9.873,10.086    c-1.932,0.539-4.46,1.659-6.687,3.995c-5.687,5.97,3.343,20.115,11.238,27.795c6.315,6.146,10.67,5.847,14.507,5.594    c1.725-0.116,3.36-0.225,5.386,0.236c4.738,1.073,9.339,4.782,11.356,6.584c-1.84,31.985,3.482,47.734,5.811,54.566    c-1.814-0.189-4.314-0.616-6.803-1.179c-13.778-25.498-42.327-22.219-51.014-20.545C71.278,88.553,50.156,82.251,34.197,82.751    C19.354,83.232,9.95,82.28,9.856,82.271c-1.563-0.174-3.069,0.785-3.584,2.29c-0.481,1.403-11.595,34.731,1.958,67.307    c13.16,31.63,28.805,57.535,28.962,57.793c0.642,1.058,1.766,1.644,2.922,1.644c0.594,0,1.2-0.155,1.748-0.485    c15.447-9.231,22.033-21.419,24.496-27.462c30.732,12.02,63.65,7.661,86.212,1.72c25.194-6.634,42.742-16.34,43.477-16.749    c0.942-0.526,1.58-1.468,1.722-2.536C203.903,119.101,183.691,93.434,171.614,78.1z M191.215,163.164    c-10.435,5.369-72.922,35.349-125.537,12.536c-0.92-0.398-1.966-0.365-2.86,0.072c-0.898,0.439-1.558,1.254-1.807,2.222    c-0.038,0.15-3.838,14.304-19.753,25.12c-4.425-7.637-16.355-28.943-26.725-53.866C4.033,124.011,9.779,97.449,11.99,89.292    c3.941,0.266,11.779,0.626,22.424,0.28c14.619-0.492,34.026,5.485,44.677,23.629c0.785,1.34,2.379,1.98,3.874,1.557    c0.329-0.094,32.973-8.986,46.346,17.884c0.445,0.894,1.259,1.548,2.227,1.79c13.624,3.408,15.596,1.207,16.546,0.145    c1.734-1.934,0.997-4.091-0.116-7.359c-2.222-6.516-7.426-21.775-5.388-53.617c0.063-0.968-0.29-1.915-0.968-2.608    c-0.304-0.307-7.504-7.581-15.79-9.46c-2.999-0.679-5.412-0.521-7.354-0.387c-3.33,0.222-5.156,0.345-9.289-3.676    c-7.381-7.182-11.496-16.159-10.941-18.311c2.113-2.123,4.731-2.253,4.801-2.256c1.852-0.027,3.345-1.524,3.366-3.376    c0-0.061,0.16-6.117,3.538-6.217c0.15-0.005,0.307-0.007,0.473-0.007c7.617,0,29.541,4.751,34.098,11.08    c2.07,2.879,3.732,7.576,5.656,13.013c2.966,8.383,6.658,18.814,13.911,28.163c0.69,0.887,1.415,1.809,2.169,2.766    C178.236,97.548,196.27,120.444,191.215,163.164z" fill="#2699fb"/>
	</g>
</g>
<g>
	<g>
		<path d="M181.472,1c-1.333-1.333-3.494-1.333-4.826,0l-20.48,20.48c-1.333,1.333-1.333,3.494,0,4.826c0.667,0.667,1.539,1,2.413,1    c0.874,0,1.746-0.334,2.413-1l20.48-20.48C182.805,4.493,182.805,2.333,181.472,1z" fill="#3289c7"/>
	</g>
</g>
<g>
	<g>
		<path d="M206.123,29.45c-0.703-1.751-2.683-2.604-4.439-1.901l-34.133,13.653c-1.749,0.701-2.601,2.688-1.901,4.437    c0.534,1.335,1.816,2.147,3.171,2.147c0.422,0,0.85-0.079,1.268-0.246l34.133-13.653C205.971,33.186,206.823,31.199,206.123,29.45    z" fill="#3289c7"/>
	</g>
</g>
<g>
	<g>
		<path d="M209.751,61.016c-0.232-1.87-1.959-3.21-3.809-2.963l-27.307,3.413c-1.869,0.232-3.197,1.939-2.963,3.809    c0.215,1.727,1.686,2.99,3.381,2.99c0.142,0,0.285-0.009,0.428-0.027l27.307-3.413C208.657,64.593,209.983,62.887,209.751,61.016z    " fill="#3289c7"/>
	</g>
</g>
<g>
	<g>
		<path d="M137.58,155.206c-0.998-1.599-3.108-2.082-4.704-1.085c-24.788,15.486-60.394-16.377-60.75-16.7    c-1.393-1.265-3.553-1.162-4.821,0.232c-1.266,1.394-1.162,3.552,0.23,4.82c0.398,0.36,9.887,8.924,22.956,15.461    c9.649,4.825,18.729,7.243,26.964,7.243c7.014,0,13.416-1.754,19.038-5.267C138.094,158.909,138.578,156.805,137.58,155.206z" fill="#3289c7"/>
	</g>
</g>
<g>
	<g>
		<path d="M89.937,121.323l-8.75-17.082c-0.86-1.679-2.918-2.343-4.594-1.483c-1.676,0.86-2.34,2.917-1.481,4.594l8.75,17.082    c0.604,1.181,1.799,1.859,3.041,1.859c0.524,0,1.055-0.121,1.553-0.375C90.131,125.057,90.795,123.001,89.937,121.323z" fill="#3289c7"/>
	</g>
</g>
<g>
</g>
<g>
</g>
<g>
</g>
<g>
</g>
<g>
</g>
<g>
</g>
<g>
</g>
<g>
</g>
<g>
</g>
<g>
</g>
<g>
</g>
<g>
</g>
<g>
</g>
<g>
</g>
<g>
</g>
</svg>
